<?xml version="1.0" standalone="no"?>
<!DOCTYPE svg PUBLIC "-//W3C//DTD SVG 20010904//EN"
 "http://www.w3.org/TR/2001/REC-SVG-20010904/DTD/svg10.dtd">
<svg version="1.0" xmlns="http://www.w3.org/2000/svg"
 width="1024.000000pt" height="1024.000000pt" viewBox="0 0 1024.000000 1024.000000"
 preserveAspectRatio="xMidYMid meet">
<metadata>
Created by potrace 1.14, written by Peter Selinger 2001-2017
</metadata>
<g transform="translate(0.000000,1024.000000) scale(0.100000,-0.100000)"
fill="#000000" stroke="none">
<path d="M0 5375 c0 -4722 1 -4865 18 -4865 11 0 26 -8 36 -18 14 -16 15 -32
10 -104 l-7 -84 -28 4 -29 4 0 -156 0 -156 5120 0 5120 0 0 5120 0 5120 -5120
0 -5120 0 0 -4865z m6668 3231 c141 -31 308 -122 392 -213 19 -21 26 -30 14
-20 -11 9 -24 14 -28 10 -4 -5 -6 -1 -4 7 2 12 -6 14 -40 12 -33 -1 -41 1 -36
10 5 7 -5 4 -21 -6 -21 -14 -52 -20 -110 -23 -123 -5 -148 -8 -170 -21 -28
-16 -171 -43 -191 -35 -9 3 -19 1 -23 -5 -4 -7 -35 -15 -69 -18 -39 -4 -62
-11 -62 -19 0 -13 -18 -17 -112 -31 -29 -4 -45 -10 -41 -17 3 -6 1 -7 -5 -3
-6 4 -22 0 -34 -8 -13 -8 -48 -22 -78 -29 -46 -12 -55 -18 -54 -36 1 -19 -3
-21 -32 -15 -18 3 -41 1 -51 -5 -15 -9 -13 -10 12 -6 30 5 30 5 5 -6 l-25 -12
30 -7 c17 -4 -716 -8 -1627 -9 l-1658 -1 1 -402 c1 -222 5 -387 9 -368 7 33 8
31 10 -20 2 -40 4 -46 7 -22 5 37 24 39 33 2 4 -16 18 -28 48 -39 28 -10 42
-21 42 -33 0 -13 8 -18 26 -18 26 0 54 -20 54 -39 0 -5 10 -18 23 -28 24 -21
45 -49 53 -75 4 -10 10 -18 14 -18 4 0 15 -18 25 -40 10 -22 24 -45 32 -51 7
-6 13 -28 13 -48 0 -28 7 -44 30 -66 17 -16 30 -35 30 -42 0 -7 5 -13 10 -13
6 0 10 -17 10 -37 0 -28 8 -45 32 -70 24 -25 28 -33 15 -33 -9 0 -17 -3 -17
-7 0 -10 32 -43 41 -43 5 0 10 102 12 228 1 125 4 -171 7 -658 5 -977 1 -3162
-6 -3169 -2 -2 -4 224 -4 502 0 279 -4 507 -8 507 -14 0 -41 -93 -48 -167 -4
-40 -11 -73 -15 -73 -5 0 -9 -6 -9 -14 0 -7 -7 -19 -15 -26 -8 -7 -15 -19 -15
-26 0 -8 7 -14 15 -14 23 0 18 -20 -10 -42 -29 -23 -32 -38 -8 -38 13 0 9 -8
-15 -33 -36 -37 -39 -47 -17 -47 11 0 15 -11 15 -40 0 -29 -4 -40 -15 -40 -8
0 -15 -6 -15 -14 0 -7 -7 -19 -15 -26 -19 -16 -19 -40 0 -40 8 0 15 -7 15 -15
0 -8 -4 -15 -9 -15 -5 0 -19 -29 -32 -65 -12 -36 -26 -65 -31 -65 -4 0 -8 -10
-8 -23 0 -13 -6 -29 -12 -35 -10 -10 -10 -15 2 -22 12 -8 9 -15 -20 -45 -18
-19 -42 -35 -51 -35 -18 0 -79 -55 -79 -71 0 -5 -5 -9 -10 -9 -6 0 -22 -12
-36 -28 -19 -20 -27 -23 -31 -13 -7 17 -32 -39 -35 -78 -1 -14 -4 8 -8 49 l-6
75 -4 -80 c-2 -64 -4 -73 -10 -45 -4 19 -8 -100 -9 -265 0 -165 2 -310 5 -323
l6 -22 1407 -2 c773 -1 1354 -5 1291 -8 l-115 -6 120 -4 c105 -3 112 -4 60
-10 l-60 -7 53 -1 c30 -1 78 -9 107 -18 30 -8 60 -14 67 -13 7 1 31 -2 53 -8
134 -35 267 -63 315 -66 30 -2 60 -6 65 -9 6 -3 33 -9 60 -12 28 -4 86 -15
130 -26 116 -27 226 -43 365 -54 36 -3 94 -10 130 -16 36 -5 104 -12 151 -15
47 -3 109 -11 137 -19 29 -7 52 -10 52 -6 0 5 7 11 16 14 15 6 14 3 -1 -21
-18 -27 -18 -28 1 -13 10 8 23 21 27 27 4 7 13 13 19 13 7 0 22 10 35 22 13
12 25 19 27 17 3 -3 -39 -39 -92 -82 -143 -114 -287 -183 -433 -207 -43 -6
-801 -10 -2275 -10 l-2210 0 2 3106 3 3105 53 56 c29 30 52 60 50 67 -2 6 0 8
4 4 7 -7 33 14 214 170 174 151 443 403 436 409 -3 3 -11 1 -18 -3 -13 -9 -18
-10 -39 -13 -5 0 -7 -5 -4 -11 3 -5 1 -10 -5 -10 -6 0 -8 -6 -4 -12 6 -10 4
-10 -7 0 -18 17 -42 15 -36 -2 4 -10 1 -13 -7 -10 -8 3 -17 1 -21 -5 -3 -6
-17 -8 -31 -5 -19 5 -23 3 -18 -10 5 -12 0 -16 -20 -16 -15 0 -29 -7 -32 -15
-4 -8 -14 -15 -24 -15 -9 0 -28 -8 -41 -18 -13 -10 -45 -27 -71 -38 -27 -10
-48 -25 -48 -31 0 -7 -9 -13 -20 -13 -11 0 -20 -7 -20 -15 0 -9 -11 -21 -25
-27 -14 -6 -25 -15 -25 -19 0 -5 -21 -36 -46 -69 -26 -35 -44 -67 -40 -75 3
-8 2 -15 -3 -15 -8 0 -38 -80 -34 -92 1 -3 -5 -12 -14 -20 -14 -11 -16 -11 -8
1 5 10 4 12 -4 7 -6 -4 -9 -11 -6 -16 3 -5 1 -11 -5 -15 -6 -4 -8 -10 -5 -15
5 -7 -22 -35 -34 -35 -3 0 -5 -3 -4 -7 2 -4 -6 -12 -16 -17 -17 -9 -19 -4 -24
72 -8 90 -9 591 -3 598 2 2 1000 3 2218 3 2004 -1 2220 -3 2286 -18z m1351
-1255 c71 -154 66 8 66 -2226 l0 -2010 -22 -88 c-13 -49 -37 -121 -54 -162
-31 -76 -109 -195 -150 -230 -12 -11 -1 8 25 43 26 34 44 66 41 72 -3 5 -1 18
4 27 8 13 10 14 11 3 0 -11 3 -11 12 -2 9 9 9 15 0 24 -16 16 -15 23 5 44 13
12 14 19 5 22 -9 3 -9 7 2 17 9 9 15 53 19 132 7 136 1 449 -10 465 -3 7 -7
39 -8 72 -1 34 -7 74 -13 89 -7 16 -12 52 -12 80 0 86 -28 285 -55 394 -14 57
-25 108 -23 115 4 24 -13 92 -21 80 -4 -7 -6 20 -5 60 2 41 -2 75 -7 79 -6 3
-12 41 -14 84 -2 43 -8 80 -13 84 -6 3 -10 13 -9 21 2 23 -15 114 -23 125 -11
15 -11 379 0 475 6 47 12 155 13 241 2 110 7 162 16 173 7 8 11 19 8 23 -8 14
13 127 26 135 8 5 11 29 9 72 -2 40 2 84 11 113 9 26 15 66 14 89 -1 27 4 47
16 58 11 12 17 33 17 66 0 27 4 59 10 72 5 13 18 95 28 183 20 165 20 169 25
245 2 25 6 63 10 85 3 22 9 87 12 145 3 58 9 116 12 130 6 23 7 23 14 5 6 -14
8 -7 7 25 -1 25 0 70 1 100 2 42 4 50 11 34 5 -12 4 -39 -1 -63 -6 -28 -6 -48
1 -59 8 -13 10 -14 9 -2 -1 8 0 33 1 55 2 35 3 37 10 15 12 -38 11 -5 -1 45
-6 25 -15 42 -20 39 -5 -3 -9 0 -9 5 0 6 4 11 10 11 5 0 7 7 4 15 -4 8 -10 13
-14 10 -5 -3 -6 5 -3 17 4 19 3 20 -6 8 -9 -12 -10 -10 -9 11 1 14 -9 43 -22
65 -14 22 -18 34 -9 27 9 -7 30 -44 48 -82z m-2207 29 c202 -19 315 -69 436
-193 67 -70 89 -101 145 -212 l66 -130 68 -40 c185 -107 328 -267 377 -422 20
-67 21 -84 24 -1143 4 -1191 1 -1272 -48 -1372 -67 -135 -169 -250 -328 -368
-86 -64 -88 -67 -152 -188 -135 -258 -266 -355 -524 -391 -51 -7 -436 -11
-1151 -11 l-1074 0 -3 198 c-2 108 -2 1116 0 2240 l3 2042 1027 0 c617 0 1070
-4 1134 -10z m919 -337 c13 -16 12 -17 -3 -4 -10 7 -18 15 -18 17 0 8 8 3 21
-13z m120 -158 c33 -68 55 -164 62 -280 6 -79 5 -78 -19 18 -3 15 -10 27 -14
27 -7 0 -13 21 -25 90 -2 13 -9 26 -14 28 -6 2 -11 16 -12 30 -1 15 -5 38 -10
52 -7 20 -8 17 -4 -15 4 -35 3 -37 -6 -15 -10 25 -9 46 6 85 8 20 7 20 -7 1
-14 -18 -16 -17 -23 20 -5 21 -7 44 -6 51 2 13 -16 12 -39 -2 -9 -5 -6 1 5 14
l20 23 28 -34 c15 -18 41 -60 58 -93z m625 -2035 c-7 -730 -7 -731 -16 -619
-5 65 -13 96 -30 125 -13 22 -28 41 -32 42 -4 2 -8 15 -8 28 0 14 -7 27 -16
31 -8 3 -13 12 -10 19 5 14 -22 76 -36 82 -5 2 -8 13 -8 25 0 11 -9 39 -19 61
-11 23 -22 59 -25 81 -11 68 -13 80 -20 95 -22 54 -60 396 -46 415 4 6 11 40
15 78 3 37 10 67 15 67 5 0 14 26 20 58 24 122 80 336 94 357 8 12 20 40 27
63 7 23 16 42 21 42 4 0 8 6 8 14 0 7 7 19 15 26 8 7 15 25 15 41 0 16 5 29
10 29 6 0 11 47 12 118 1 64 5 -56 10 -268 5 -212 6 -666 4 -1010z m-557
-1085 c-10 -225 -27 -317 -81 -416 -45 -86 -129 -168 -212 -207 -37 -18 -70
-31 -72 -29 -3 2 26 21 63 41 38 21 60 35 51 32 -10 -3 -18 -3 -18 -1 0 5 16
37 32 65 13 23 77 161 110 240 9 19 18 51 22 70 11 51 38 134 46 140 4 3 11
16 15 30 7 24 7 24 -9 5 -8 -11 -16 -15 -16 -8 0 18 11 43 19 39 3 -2 6 9 7
25 1 18 -3 26 -10 22 -6 -4 -5 1 3 11 11 13 16 14 23 4 5 -8 6 -3 2 13 -3 16
1 39 10 57 9 17 16 41 16 53 0 12 2 20 4 18 2 -2 0 -94 -5 -204z m-279 -585
c0 -5 -5 -10 -11 -10 -5 0 -7 5 -4 10 3 6 8 10 11 10 2 0 4 -4 4 -10z m630
-1114 c0 -2 -8 -10 -17 -17 -16 -13 -17 -12 -4 4 13 16 21 21 21 13z m-7056
-1683 l29 -26 -7 -100 c-3 -54 -3 -97 1 -95 87 41 96 50 64 67 -18 10 -46 69
-37 78 7 7 70 -28 83 -46 34 -44 5 -109 -66 -145 -28 -15 -38 -16 -62 -5 -17
6 -34 20 -39 30 -12 21 -14 269 -2 269 4 0 20 -12 36 -27z"/>
<path d="M6966 8452 c-3 -5 3 -17 13 -27 17 -15 19 -15 17 -1 -3 22 -22 40
-30 28z"/>
<path d="M2246 8072 c-2 -4 4 -8 14 -8 10 0 16 4 14 8 -3 4 -9 8 -14 8 -5 0
-11 -4 -14 -8z"/>
<path d="M3187 4173 c-11 -10 -8 -93 3 -93 6 0 10 23 10 50 0 51 -1 55 -13 43z"/>
<path d="M2230 2316 c8 -11 25 -30 37 -42 13 -13 20 -30 17 -38 -6 -15 57
-150 82 -176 29 -30 54 -63 54 -72 0 -4 7 -8 16 -8 9 0 18 -9 21 -19 3 -11 12
-22 21 -25 10 -3 37 -19 62 -35 75 -49 132 -81 145 -81 7 0 18 -7 25 -15 7 -8
16 -12 21 -9 5 3 6 -2 3 -11 -5 -11 -2 -14 12 -8 11 4 15 3 10 -5 -6 -10 25
-35 49 -38 6 -1 15 -2 20 -3 6 -1 3 -6 -5 -11 -11 -7 -7 -8 15 -6 17 1 35 -2
42 -7 7 -5 16 -7 21 -5 11 4 -592 566 -663 618 -19 14 -19 14 -5 -4z m431
-463 c13 -16 12 -17 -3 -4 -17 13 -22 21 -14 21 2 0 10 -8 17 -17z m194 -123
c3 -5 1 -10 -4 -10 -6 0 -11 5 -11 10 0 6 2 10 4 10 3 0 8 -4 11 -10z"/>
<path d="M2257 2249 c7 -7 15 -10 18 -7 3 3 -2 9 -12 12 -14 6 -15 5 -6 -5z"/>
<path d="M8021 3074 c0 -11 3 -14 6 -6 3 7 2 16 -1 19 -3 4 -6 -2 -5 -13z"/>
<path d="M7977 2865 c2 -7 -3 -20 -13 -29 -9 -9 -14 -20 -10 -23 7 -7 33 24
39 48 2 9 -1 16 -8 16 -7 0 -11 -6 -8 -12z"/>
<path d="M4197 6843 c-4 -15 -2 -3227 2 -3353 l1 -45 222 2 c123 2 435 4 693
6 447 3 474 4 550 25 315 86 589 354 703 688 55 161 57 184 57 929 0 760 -4
835 -57 990 -117 349 -393 631 -708 725 -151 45 -227 50 -862 50 -560 0 -597
-1 -601 -17z"/>
<path d="M3661 5204 c0 -175 3 -327 7 -336 4 -9 6 131 6 313 -1 181 -4 332 -8
336 -3 3 -6 -137 -5 -313z"/>
<path d="M3683 5240 c0 -25 2 -35 4 -22 2 12 2 32 0 45 -2 12 -4 2 -4 -23z"/>
<path d="M3683 5000 c0 -25 2 -35 4 -22 2 12 2 32 0 45 -2 12 -4 2 -4 -23z"/>
<path d="M3663 4795 c0 -22 2 -30 4 -17 2 12 2 30 0 40 -3 9 -5 -1 -4 -23z"/>
</g>
</svg>
